<svg width="900" height="116" xmlns="http://www.w3.org/2000/svg" version="1.1">

 <g>
  <title>Layer 1</title>
  <path id="svg_1" stroke-linecap="round" fill="#000000" d="m0,0.27994l21.5,-0.2c21.5,-0.1 64.5,-0.5 107.3,2.2c42.9,2.7 85.5,8.3 128.4,12.8c42.8,4.5 85.8,7.9 128.6,5.9c42.9,-2 85.5,-9.4 128.4,-10c42.8,-0.7 85.8,5.3 128.6,9c42.9,3.6 85.5,5 128.4,4.6c42.8,-0.3 85.8,-2.3 107.3,-3.3l21.5,-1l0,96l-21.5,0c-21.5,0 -64.5,0 -107.3,0c-42.9,0 -85.5,0 -128.4,0c-42.8,0 -85.8,0 -128.6,0c-42.9,0 -85.5,0 -128.4,0c-42.8,0 -85.8,0 -128.6,0c-42.9,0 -85.5,0 -128.4,0c-42.8,0 -85.8,0 -107.3,0l-21.5,0l0,-116z"/>
 </g>
</svg>