<svg width="900" height="52" xmlns="http://www.w3.org/2000/svg" version="1.1">

 <g>
  <title>Layer 1</title>
  <path stroke="null" id="svg_1" stroke-linecap="round" fill="#F7FAFC" d="m0,45.70294l21.5,0.8c21.5,0.9 64.5,2.5 107.3,2.5c42.9,0 85.5,-1.6 128.4,-7.3c42.8,-5.7 85.8,-15.3 128.6,-23.8c42.9,-8.5 85.5,-15.9 128.4,-17.5c42.8,-1.7 85.8,2.3 128.6,6c42.9,3.6 85.5,7 128.4,7.8c42.8,0.8 85.8,-0.8 107.3,-1.7l21.5,-0.8l0,75l-21.5,0c-21.5,0 -64.5,0 -107.3,0c-42.9,0 -85.5,0 -128.4,0c-42.8,0 -85.8,0 -128.6,0c-42.9,0 -85.5,0 -128.4,0c-42.8,0 -85.8,0 -128.6,0c-42.9,0 -85.5,0 -128.4,0c-42.8,0 -85.8,0 -107.3,0l-21.5,0l0,-41z"/>
 </g>
</svg>