<svg id="visual" viewBox="0 0 960 50" width="960" height="50" xmlns="http://www.w3.org/2000/svg" xmlns:xlink="http://www.w3.org/1999/xlink" version="1.1">
    <path d="M0 20L26.7 23.8C53.3 27.7 106.7 35.3 160 40.3C213.3 45.3 266.7 47.7 320 46.8C373.3 46 426.7 42 480 39.2C533.3 36.3 586.7 34.7 640 36.7C693.3 38.7 746.7 44.3 800 46.7C853.3 49 906.7 48 933.3 47.5L960 47L960 0L933.3 0C906.7 0 853.3 0 800 0C746.7 0 693.3 0 640 0C586.7 0 533.3 0 480 0C426.7 0 373.3 0 320 0C266.7 0 213.3 0 160 0C106.7 0 53.3 0 26.7 0L0 0Z" fill="#000000" stroke-linecap="round" stroke-linejoin="miter"></path>
</svg>