<svg width="207" height="207" xmlns="http://www.w3.org/2000/svg" version="1.1">
 <!-- Generator: Sketch 51.2 (57519) - http://www.bohemiancoding.com/sketch -->
 <title>next-black</title>
 <desc>Created with Sketch.</desc>

 <g>
  <title>Layer 1</title>
  <g fill-rule="evenodd" fill="none" id="Page-1">
   <g fill-rule="nonzero" fill="#000000" id="Black-Next.js">
    <g id="next-black">
     <g id="EXT-+-Type-something">
      <path id="EXT" d="m48.95966,73.83706l38.95896,0l0,3.08163l-35.38773,0l0,23.19337l33.27745,0l0,3.08164l-33.27745,0l0,25.46404l35.79355,0l0,3.08164l-39.36478,0l0,-57.90232zm42.44903,0l4.13939,0l18.34318,25.46404l18.749,-25.46404l25.5017,-32.3452l-41.89693,60.4854l21.58976,29.76212l-4.30172,0l-19.64181,-27.08596l-19.72297,27.08596l-4.22056,0l21.75209,-29.76212l-20.29113,-28.1402zm47.96822,3.08163l0,-3.08163l44.39699,0l0,3.08163l-20.45346,0l0,54.82069l-3.57124,0l0,-54.82069l-20.37229,0z"/>
      <polygon points="0.22039033472537994,73.83705520629883 4.684440612792969,73.83705520629883 66.24103546142578,165.50813674926758 40.802635192871094,131.73938369750977 3.9539566040039062,78.21622085571289 3.7916183471679688,131.73938369750977 0.22039033472537994,131.73938369750977 " id="Type-something"/>
     </g>
     <path id=".JS" d="m183.41408,127.72777c0.73832,0 1.27685,-0.56261 1.27685,-1.28968c0,-0.72707 -0.53853,-1.28969 -1.27685,-1.28969c-0.72963,0 -1.27685,0.56262 -1.27685,1.28969c0,0.72707 0.54722,1.28968 1.27685,1.28968zm3.50917,-3.393c0,2.14659 1.55481,3.5488 3.82187,3.5488c2.41473,0 3.87399,-1.44548 3.87399,-3.95561l0,-8.83738l-1.94568,0l0,8.82872c0,1.39356 -0.70357,2.13794 -1.94568,2.13794c-1.11182,0 -1.86751,-0.69245 -1.89356,-1.72247l-1.91094,0zm10.24087,-0.11252c0.13898,2.23315 2.00648,3.66132 4.78603,3.66132c2.97063,0 4.82945,-1.49742 4.82945,-3.88637c0,-1.87826 -1.0597,-2.91693 -3.63078,-3.51417l-1.38108,-0.33757c-1.63298,-0.38085 -2.29312,-0.89153 -2.29312,-1.78306c0,-1.12523 1.02495,-1.86095 2.56239,-1.86095c1.45926,0 2.46684,0.71841 2.64925,1.86961l1.89356,0c-0.11292,-2.10331 -1.97174,-3.58342 -4.51676,-3.58342c-2.73611,0 -4.56018,1.48011 -4.56018,3.7046c0,1.83499 1.03364,2.92559 3.30071,3.45359l1.6156,0.3895c1.65904,0.3895 2.38867,0.96077 2.38867,1.91289c0,1.10792 -1.14656,1.91289 -2.71005,1.91289c-1.67641,0 -2.84034,-0.75304 -3.00538,-1.93886l-1.92831,0z"/>
    </g>
   </g>
  </g>
 </g>
</svg>