<?xml version="1.0" encoding="utf-8"?>
<!-- Generator: Adobe Illustrator 17.1.0, SVG Export Plug-In . SVG Version: 6.00 Build 0)  -->
<!DOCTYPE svg PUBLIC "-//W3C//DTD SVG 1.1//EN" "http://www.w3.org/Graphics/SVG/1.1/DTD/svg11.dtd">
<svg version="1.1" id="Layer_1" xmlns="http://www.w3.org/2000/svg" xmlns:xlink="http://www.w3.org/1999/xlink" x="0px" y="0px"
	 viewBox="0 0 207.4 75.4" enable-background="new 0 0 207.4 75.4" xml:space="preserve">
<path fill="none" stroke="#FFFFFF" stroke-width="19" stroke-linejoin="round" stroke-miterlimit="10" d="M9.5,74.8
	c0-36.1,29.2-65.3,65.3-65.3"/>
<g>
	<path fill="#FFFFFF" d="M113.5,33.8c3.6,1.8,6.3,4.4,8.3,7.8c2,3.3,3,7.2,3,11.6c0,4.4-1,8.3-3,11.6c-2,3.3-4.7,5.9-8.3,7.8
		c-3.6,1.8-7.7,2.8-12.4,2.8c-4.7,0-8.8-0.9-12.4-2.8c-3.6-1.8-6.3-4.4-8.3-7.8c-1.9-3.3-2.9-7.2-2.9-11.6c0-4.4,1-8.2,2.9-11.6
		c1.9-3.3,4.7-5.9,8.3-7.8c3.6-1.8,7.7-2.8,12.4-2.8C105.8,31,109.9,31.9,113.5,33.8z M94.4,45.5c-1.7,2-2.6,4.6-2.6,7.8
		c0,3.3,0.9,5.9,2.6,7.8c1.7,2,3.9,3,6.7,3c2.8,0,5.1-1,6.8-3c1.7-2,2.6-4.6,2.6-7.8c0-3.2-0.9-5.8-2.6-7.8c-1.7-2-4-3-6.8-3
		C98.3,42.5,96.1,43.5,94.4,45.5z"/>
	<path fill="#FFFFFF" d="M160.2,72.5c-1.6,0.9-3.4,1.6-5.5,2.1c-2.1,0.5-4.2,0.8-6.3,0.8c-4.3,0-7.7-1.2-10.4-3.7
		c-2.6-2.5-4-5.8-4-10.2V43h-6v-9.4h6v-12h14.2v12h11.2V43h-11.2v16.3c0,3,1.3,4.6,3.8,4.6c1.5,0,3.4-0.5,5.5-1.4L160.2,72.5z"/>
	<path fill="#FFFFFF" d="M167.4,18.9h13.4v55.8h-13.4V18.9z"/>
	<path fill="#FFFFFF" d="M207.4,19.2c0,2.2-0.7,4-2.1,5.4c-1.4,1.4-3.2,2.2-5.4,2.2c-2.2,0-4-0.7-5.4-2.2c-1.4-1.4-2.1-3.3-2.1-5.4
		 M192.9,31.5h14.2v43.3h-14.2V31.5z"/>
</g>
</svg>
