<svg width="314" height="246" xmlns="http://www.w3.org/2000/svg" version="1.2">
 <defs>
  <clipPath id="a">
   <path d="m239.03,226.605l-42.13,24.317c-1.578,0.91 -2.546,2.59 -2.546,4.406l0,48.668c0,1.817 0.968,3.496 2.546,4.406l42.133,24.336c1.575,0.907 3.517,0.907 5.09,0l42.126,-24.336c1.57,-0.91 2.54,-2.59 2.54,-4.406l0,-48.668c0,-1.816 -0.97,-3.496 -2.55,-4.406l-42.12,-24.317c-0.79,-0.453 -1.67,-0.68 -2.55,-0.68c-0.88,0 -1.76,0.227 -2.55,0.68" id="svg_1"/>
  </clipPath>
  <clipPath id="c">
   <path d="m195.398,307.086c0.403,0.523 0.907,0.976 1.5,1.316l36.14,20.875l6.02,3.46c0.9,0.52 1.926,0.74 2.934,0.665c0.336,-0.027 0.672,-0.09 1,-0.183l44.434,-81.36c-0.34,-0.37 -0.738,-0.68 -1.184,-0.94l-27.586,-15.93l-14.582,-8.39c-0.414,-0.24 -0.863,-0.41 -1.32,-0.53l-47.356,81.017zm0,0" id="svg_2"/>
  </clipPath>
  <clipPath id="e">
   <path d="m241.066,225.953c-0.707,0.07 -1.398,0.29 -2.035,0.652l-42.01,24.247l45.3,82.51c0.63,-0.09 1.25,-0.3 1.81,-0.624l42.13,-24.336c1.3,-0.754 2.19,-2.03 2.46,-3.476l-46.18,-78.89c-0.34,-0.067 -0.68,-0.102 -1.03,-0.102c-0.14,0 -0.28,0.007 -0.42,0.02" id="svg_3"/>
  </clipPath>
 </defs>
 <g>
  <title>Layer 1</title>
  <path id="svg_7" d="m1.05263,102.19914l313.07302,-102.19914l-47.49984,245.62415l-265.57318,-143.42501z" opacity="NaN" stroke="#000" fill="#03045e"/>
  <rect stroke-width="0" id="svg_4" height="144.3745" width="266.87408" y="102.03466" x="0" stroke="#000" fill="#0077b6"/>
  <path id="svg_6" d="m0.625,102.03466" opacity="NaN" stroke="#000" fill="#0077b6"/>
 </g>
</svg>